<svg data-v-1fe08f6c="" version="1.0" xmlns="http://www.w3.org/2000/svg" xmlns:xlink="http://www.w3.org/1999/xlink" width="100%" height="100%" viewBox="0 0 340.000000 250.000000" preserveAspectRatio="xMidYMid meet" color-interpolation-filters="sRGB" class="el-tooltip" style="margin: auto;"><rect data-v-1fe08f6c="" x="0" y="0" width="100%" height="100%" fill="#009bff" fill-opacity="1" class="background"/> <rect data-v-1fe08f6c="" x="0" y="0" width="100%" height="100%" fill="url(#watermark)" fill-opacity="1" class="watermarklayer"/> <g data-v-1fe08f6c="" fill="#fff" class="linesvg" transform="translate(116.38960647583008,94.6433334350586)"><rect fill="#fff" height="5" x="0" y="38.76333236694336" width="107.22078704833984"/> <g fill="#fff"><g fill-rule="" class="tp-name" transform="translate(1.435394287109375,0)"><g><path d="M20.25-12.25L20.25-8.25Q20.25-3.10 20.60 0L20.60 0Q19.25 0.90 17.03 1.38Q14.80 1.85 12.65 1.85L12.65 1.85Q11.90 1.85 11.55 1.80L11.55 1.80Q12.15-0.10 12.43-2.43Q12.70-4.75 12.70-6.80L12.70-6.80L12.70-12.10L2-30.75L9.85-30.75L16.50-18.55L23-30.75L30.85-30.75L20.25-12.25ZM61.10 1.30L57.75-7.15L46.40-7.15L43.05 1.30L34.85 1.30L48.30-30.75L55.80-30.75L69.30 1.30L61.10 1.30ZM48.65-12.75L55.50-12.75L52.05-21.35L48.65-12.75ZM105.20-21L105.20-6.40L106.30 1.70L98.05 1.70L81.55-22.35L81.55-8.30Q81.55-3.15 81.90-0.05L81.90-0.05Q80.20 1.05 77.78 1.70Q75.35 2.35 73.30 2.25L73.30 2.25Q74.40-1.25 74.40-6.40L74.40-6.40L74.40-20.65L73.30-31.15L81.55-31.15L98.10-8.20L98.10-21.40L97.30-30.10Q98.60-30.85 101.33-31.18Q104.05-31.50 106.35-31.50L106.35-31.50L105.20-21Z" transform="translate(-2, 31.5)"/></g> <!----> <!----> <!----> <!----> <!----> <!----> <!----></g> <g fill-rule="" hollow-target="custom" class="tp-slogan" fill="#fff" transform="translate(0,47.76333236694336)"><!----> <!----> <g mask="url(#84914543-8b6f-42f7-9484-aa97a1392f42)"><g><rect stroke-width="2" class="i-icon-bg" x="0" y="0" width="107.22078552246094" height="12.950000762939453" fill-opacity="1"/> <!----> <!----> </g> <g transform="translate(9.225390625,2)"><g fill="#009bff"><path d="M8.06-6.05L8.06-6.05L6.94-6.05Q6.52-7.78 4.55-7.83L4.55-7.83Q1.83-7.69 1.73-4.36L1.73-4.36Q1.73-0.80 4.59-0.80L4.59-0.80Q6.56-0.84 7.03-3.19L7.03-3.19L8.16-3.19Q7.64 0.05 4.36 0.14L4.36 0.14Q0.61 0 0.52-4.31L0.52-4.31Q0.70-8.63 4.55-8.81L4.55-8.81Q7.59-8.72 8.06-6.05ZM34.76-4.27L34.76-4.27Q34.58-7.64 31.76-7.83L31.76-7.83Q28.90-7.69 28.76-4.27L28.76-4.27Q28.90-0.94 31.76-0.80L31.76-0.80Q34.58-0.98 34.76-4.27ZM35.94-4.27L35.94-4.27Q35.65 0 31.76 0.14L31.76 0.14Q27.83 0 27.54-4.27L27.54-4.27Q27.78-8.72 31.76-8.81L31.76-8.81Q35.65-8.67 35.94-4.27ZM59.26 0L55.79 0L55.79-8.58L59.31-8.58Q62.78-8.39 62.92-4.41L62.92-4.41Q62.73-0.09 59.26 0L59.26 0ZM59.12-7.64L56.96-7.64L56.96-0.98L59.21-0.98Q61.65-1.13 61.75-4.31L61.75-4.31Q61.70-7.55 59.12-7.64L59.12-7.64ZM84.13-1.03L89.29-1.03L89.29 0L82.96 0L82.96-8.58L89.20-8.58L89.20-7.59L84.13-7.59L84.13-4.92L88.82-4.92L88.82-3.89L84.13-3.89L84.13-1.03Z" transform="translate(-0.515625, 8.8125)"/></g></g></g></g></g></g><mask id="84914543-8b6f-42f7-9484-aa97a1392f42"><g fill="white"><rect stroke-width="2" class="i-icon-bg" x="0" y="0" width="107.22078552246094" height="12.950000762939453" fill-opacity="1"/>   </g> <g transform="translate(9.225390625,2)" fill="black"><g><path d="M8.06-6.05L8.06-6.05L6.94-6.05Q6.52-7.78 4.55-7.83L4.55-7.83Q1.83-7.69 1.73-4.36L1.73-4.36Q1.73-0.80 4.59-0.80L4.59-0.80Q6.56-0.84 7.03-3.19L7.03-3.19L8.16-3.19Q7.64 0.05 4.36 0.14L4.36 0.14Q0.61 0 0.52-4.31L0.52-4.31Q0.70-8.63 4.55-8.81L4.55-8.81Q7.59-8.72 8.06-6.05ZM34.76-4.27L34.76-4.27Q34.58-7.64 31.76-7.83L31.76-7.83Q28.90-7.69 28.76-4.27L28.76-4.27Q28.90-0.94 31.76-0.80L31.76-0.80Q34.58-0.98 34.76-4.27ZM35.94-4.27L35.94-4.27Q35.65 0 31.76 0.14L31.76 0.14Q27.83 0 27.54-4.27L27.54-4.27Q27.78-8.72 31.76-8.81L31.76-8.81Q35.65-8.67 35.94-4.27ZM59.26 0L55.79 0L55.79-8.58L59.31-8.58Q62.78-8.39 62.92-4.41L62.92-4.41Q62.73-0.09 59.26 0L59.26 0ZM59.12-7.64L56.96-7.64L56.96-0.98L59.21-0.98Q61.65-1.13 61.75-4.31L61.75-4.31Q61.70-7.55 59.12-7.64L59.12-7.64ZM84.13-1.03L89.29-1.03L89.29 0L82.96 0L82.96-8.58L89.20-8.58L89.20-7.59L84.13-7.59L84.13-4.92L88.82-4.92L88.82-3.89L84.13-3.89L84.13-1.03Z" transform="translate(-0.515625, 8.8125)"/></g></g></mask></svg>